# xmcd
#
# Track frame offsets:
#       150
#       10542
#       22130
#       36842
#       50387
#       62777
#       76195
#       87125
#       101127
#       111415
#       122612
#       133380
#       147915
#       156830
#       176745
#       189562
#
# Disc length: 2667 seconds
#
# Revision: 1
# Processed by: cddbd v1.4PL0 Copyright (c) Steve Scherf et al.
# Submitted via: MusiCat 1.1
#
DISCID=db0a6910
DTITLE=Jet Blacks $ Cowboy Group - O Melhor da Música Country
DYEAR=1900
DGENRE=
TTITLE0=Veneno
TTITLE1=California Dreamin'
TTITLE2=Apache
TTITLE3=San Francisco
TTITLE4=Dance With The Guitar Man
TTITLE5=Blowin In The Wind
TTITLE6=Gerônimo
TTITLE7=Jambalaya (On The Bayou)
TTITLE8=Wonderful Land
TTITLE9=On The Road Again
TTITLE10=The Lonely Bull
TTITLE11=Do You Wanna Dance?
TTITLE12=The Boots Are Making For Walkin
TTITLE13=You're Got a Friend
TTITLE14=Over The Mountain... A Cross Thesea
TTITLE15=Hello Mary Lou
EXTD=0\n\n\n
EXTT0=
EXTT1=
EXTT2=
EXTT3=
EXTT4=
EXTT5=
EXTT6=
EXTT7=
EXTT8=
EXTT9=
EXTT10=
EXTT11=
EXTT12=
EXTT13=
EXTT14=
EXTT15=
PLAYORDER=
